<svg width="52" height="61" viewBox="0 0 52 61" fill="none" xmlns="http://www.w3.org/2000/svg">
<path d="M42.8345 58.3656C39.5679 61.5323 36.0012 61.0323 32.5679 59.5323C28.9345 57.999 25.6012 57.9323 21.7679 59.5323C16.9679 61.599 14.4345 60.999 11.5679 58.3656C-4.6988 41.599 -2.2988 16.0656 16.1679 15.1323C20.6679 15.3656 23.8012 17.599 26.4345 17.799C30.3679 16.999 34.1345 14.699 38.3345 14.999C43.3679 15.399 47.1679 17.399 49.6679 20.999C39.2679 27.2323 41.7345 40.9323 51.2679 44.7656C49.3679 49.7656 46.9012 54.7323 42.8012 58.399L42.8345 58.3656ZM26.1012 14.9323C25.6012 7.49896 31.6345 1.36562 38.5679 0.765625C39.5345 9.36562 30.7679 15.7656 26.1012 14.9323Z" fill="white"/>
</svg>
