<svg width="59" height="11" viewBox="0 0 59 11" fill="none" xmlns="http://www.w3.org/2000/svg">
<rect opacity="0.35" x="38.16" y="1.0077" width="17.807" height="8.90351" rx="2.22588" stroke="black" stroke-width="0.741959"/>
<path opacity="0.4" d="M57.0781 4.09961V7.06745C57.6752 6.81609 58.0635 6.23136 58.0635 5.58353C58.0635 4.9357 57.6752 4.35097 57.0781 4.09961Z" fill="black"/>
<rect x="39.2734" y="2.12109" width="15.5811" height="6.67764" rx="0.989279" fill="black"/>
<path fill-rule="evenodd" clip-rule="evenodd" d="M26.0414 2.91201C27.8715 2.91209 29.6316 3.57802 30.9579 4.77216C31.0578 4.86435 31.2174 4.86319 31.3158 4.76955L32.2705 3.85708C32.3203 3.80958 32.3481 3.74525 32.3477 3.67832C32.3473 3.61138 32.3187 3.54737 32.2683 3.50043C28.7871 0.341003 23.2951 0.341003 19.8139 3.50043C19.7635 3.54733 19.7348 3.61133 19.7344 3.67826C19.7339 3.7452 19.7616 3.80955 19.8114 3.85708L20.7664 4.76955C20.8647 4.86333 21.0245 4.8645 21.1243 4.77216C22.4508 3.57794 24.2111 2.91201 26.0414 2.91201ZM26.04 5.9599C27.0388 5.95984 28.0019 6.32942 28.7422 6.99682C28.8424 7.09154 29.0001 7.08949 29.0977 6.99219L30.0449 6.03939C30.0948 5.98941 30.1225 5.92161 30.1218 5.85116C30.1211 5.78071 30.092 5.71348 30.0411 5.66453C27.7867 3.57675 24.2953 3.57675 22.0409 5.66453C21.99 5.71348 21.9609 5.78074 21.9602 5.85122C21.9596 5.92169 21.9874 5.98948 22.0373 6.03939L22.9843 6.99219C23.0819 7.08949 23.2396 7.09154 23.3398 6.99682C24.0796 6.32986 25.0419 5.96031 26.04 5.9599ZM27.8959 7.9774C27.8973 8.05349 27.87 8.12684 27.8205 8.18014L26.2188 9.95295C26.1719 10.0051 26.1079 10.0344 26.0411 10.0344C25.9743 10.0344 25.9103 10.0051 25.8633 9.95295L24.2614 8.18014C24.2119 8.1268 24.1847 8.05342 24.1862 7.97734C24.1876 7.90125 24.2177 7.82921 24.2692 7.77821C25.292 6.82931 26.7901 6.82931 27.813 7.77821C27.8645 7.82925 27.8944 7.90132 27.8959 7.9774Z" fill="black"/>
<path fill-rule="evenodd" clip-rule="evenodd" d="M14.2456 1.96556C14.2456 1.50457 13.8913 1.13086 13.4542 1.13086H12.6628C12.2257 1.13086 11.8714 1.50457 11.8714 1.96556V9.19967C11.8714 9.66066 12.2257 10.0344 12.6628 10.0344H13.4542C13.8913 10.0344 14.2456 9.66066 14.2456 9.19967V1.96556ZM8.7304 2.91156H9.52182C9.95891 2.91156 10.3132 3.29424 10.3132 3.7663V9.17964C10.3132 9.65169 9.95891 10.0344 9.52182 10.0344H8.7304C8.29331 10.0344 7.93898 9.65169 7.93898 9.17964V3.7663C7.93898 3.29424 8.29331 2.91156 8.7304 2.91156ZM5.51522 4.84066H4.7238C4.28671 4.84066 3.93238 5.22821 3.93238 5.70628V9.16875C3.93238 9.64682 4.28671 10.0344 4.7238 10.0344H5.51522C5.95231 10.0344 6.30665 9.64682 6.30665 9.16875V5.70628C6.30665 5.22821 5.95231 4.84066 5.51522 4.84066ZM1.58285 6.62136H0.791423C0.354332 6.62136 0 7.00337 0 7.47461V9.18112C0 9.65236 0.354332 10.0344 0.791423 10.0344H1.58285C2.01994 10.0344 2.37427 9.65236 2.37427 9.18112V7.47461C2.37427 7.00337 2.01994 6.62136 1.58285 6.62136Z" fill="black"/>
</svg>
